<?xml version="1.0" standalone="no"?>
<!DOCTYPE svg PUBLIC "-//W3C//DTD SVG 20010904//EN"
 "http://www.w3.org/TR/2001/REC-SVG-20010904/DTD/svg10.dtd">
<svg version="1.0" xmlns="http://www.w3.org/2000/svg"
 width="260.000000pt" height="260.000000pt" viewBox="0 0 260.000000 260.000000"
 preserveAspectRatio="xMidYMid meet">
<metadata>
Created by potrace 1.11, written by Peter Selinger 2001-2013
</metadata>
<g transform="translate(0.000000,260.000000) scale(0.100000,-0.100000)"
fill="#000000" stroke="none">
<path d="M1062 2575 c15 -34 9 -37 -40 -20 -63 22 -118 28 -138 16 -16 -9 -13
-10 21 -11 63 0 175 -35 175 -53 0 -5 -8 -11 -18 -14 -10 -2 -25 -14 -33 -25
-42 -60 -51 -69 -73 -63 -18 5 -19 5 -3 -5 9 -6 17 -18 17 -27 0 -9 6 -13 14
-10 9 4 17 -4 21 -21 4 -15 10 -21 12 -14 3 6 11 12 20 12 10 0 12 6 8 19 -4
13 2 27 16 40 13 12 17 21 11 21 -7 0 -17 -9 -24 -20 -14 -23 -48 -27 -48 -6
0 25 87 96 118 96 26 0 69 -22 84 -44 5 -7 8 -4 8 7 0 10 7 20 15 23 22 9 10
21 -30 28 -19 4 -35 11 -35 16 0 5 -7 7 -16 3 -17 -6 -74 42 -74 64 0 7 -4 13
-10 13 -6 0 -5 -10 2 -25z"/>
<path d="M1200 2557 l-35 -11 35 -4 c19 -2 41 -9 49 -15 12 -10 13 -9 8 7 -7
18 -3 18 60 13 64 -6 66 -5 38 8 -36 17 -106 18 -155 2z"/>
<path d="M1748 2527 c-14 -38 -14 -45 -2 -40 16 6 28 42 22 68 -2 10 -10 -1
-20 -28z"/>
<path d="M1470 2524 c-19 -7 -51 -13 -71 -13 -21 -1 -42 -8 -50 -18 -13 -15
-12 -15 9 -4 13 7 31 10 39 6 18 -6 109 21 118 36 8 11 -1 10 -45 -7z"/>
<path d="M948 2483 c7 -3 16 -2 19 1 4 3 -2 6 -13 5 -11 0 -14 -3 -6 -6z"/>
<path d="M1365 2450 c-35 -23 -64 -59 -65 -80 0 -8 17 4 38 28 21 25 54 49 77
57 38 14 39 14 10 14 -16 1 -43 -8 -60 -19z"/>
<path d="M1700 2450 c-14 -4 -38 -15 -55 -24 -16 -9 -35 -16 -41 -16 -6 0 -17
-6 -23 -14 -9 -11 -8 -15 5 -20 24 -9 41 -7 25 3 -12 8 -10 12 12 22 29 13 51
4 27 -11 -11 -7 -6 -10 18 -10 24 0 41 -8 62 -32 16 -17 27 -35 24 -39 -6 -11
7 -40 16 -34 14 9 40 -7 40 -24 0 -10 7 -26 16 -37 13 -16 15 -16 10 -1 -9 30
27 20 74 -20 24 -20 41 -31 38 -23 -2 8 -24 29 -49 47 -48 35 -60 46 -100 89
-15 16 -38 39 -52 52 -15 13 -24 29 -20 38 4 10 -3 14 -28 14 l-34 1 35 15
c19 8 43 13 52 10 10 -2 18 0 18 5 0 5 -4 9 -9 9 -5 0 -15 2 -23 4 -7 2 -24 1
-38 -4z"/>
<path d="M720 2445 c0 -2 9 -20 19 -39 11 -19 17 -37 14 -40 -10 -9 -74 -7
-112 4 -41 11 -52 6 -21 -10 12 -6 50 -13 85 -15 66 -3 85 -9 85 -27 0 -6 -9
-8 -22 -4 -68 19 -67 19 -61 -2 3 -14 -3 -25 -22 -38 -39 -25 -90 -103 -76
-117 12 -12 52 30 45 48 -6 14 96 82 104 69 11 -15 110 -44 128 -37 12 4 15 1
12 -13 -2 -13 -10 -18 -24 -16 -17 2 -22 -4 -27 -34 -4 -24 -2 -43 6 -52 7
-10 11 -43 10 -88 -2 -79 -24 -136 -82 -208 -36 -46 -37 -46 -12 -46 25 0 87
65 110 115 30 63 35 85 18 85 -17 0 -29 48 -13 53 6 2 11 26 12 54 0 29 8 62
17 77 10 14 17 34 17 44 0 10 9 27 20 37 11 10 20 21 20 24 0 4 -26 21 -57 40
-32 18 -75 52 -95 75 -30 34 -36 37 -31 17 4 -18 2 -22 -8 -19 -8 3 -16 13
-18 24 -4 22 -20 44 -32 44 -5 0 -9 -2 -9 -5z m129 -115 c24 -17 50 -30 58
-30 7 0 13 -6 13 -13 0 -13 -44 -16 -56 -4 -4 3 -19 3 -35 0 -18 -3 -29 -1
-29 6 0 6 10 11 23 11 21 1 21 1 -5 25 -51 45 -32 48 31 5z"/>
<path d="M1256 2415 l5 -40 -23 25 -23 26 -60 -36 c-33 -19 -74 -44 -90 -54
-35 -23 -95 -110 -95 -139 0 -16 4 -14 23 13 28 42 44 48 50 18 4 -20 4 -20 6
5 2 41 26 72 93 117 69 46 78 48 96 20 11 -18 9 -24 -11 -44 -13 -12 -21 -28
-20 -33 2 -6 -7 -8 -20 -6 -42 8 -128 -51 -112 -76 4 -7 19 3 39 24 22 23 43
35 60 35 25 0 26 -2 26 -59 0 -38 5 -63 14 -70 12 -10 14 -4 12 41 -2 29 0 62
4 73 7 18 8 19 15 2 4 -9 5 -27 2 -40 -3 -12 -1 -31 3 -42 7 -17 9 -15 9 11 1
17 7 52 15 77 16 54 12 128 -9 166 -15 26 -15 26 -9 -14z m-6 -120 c0 -8 -4
-15 -10 -15 -5 0 -10 7 -10 15 0 8 5 15 10 15 6 0 10 -7 10 -15z"/>
<path d="M1450 2434 c-25 -9 -54 -24 -64 -34 -15 -15 -10 -14 30 5 27 14 56
25 64 25 8 0 22 5 30 10 24 15 -6 12 -60 -6z"/>
<path d="M1840 2389 c14 -4 18 -8 10 -8 -22 -2 30 -30 56 -31 31 0 95 -28 123
-53 16 -15 22 -17 19 -7 -2 8 -23 25 -46 38 l-42 23 26 22 25 22 -98 1 c-56 0
-87 -3 -73 -7z"/>
<path d="M486 2336 c-31 -30 -56 -58 -56 -62 0 -5 11 3 24 18 13 14 45 42 71
62 25 20 40 36 31 36 -8 0 -40 -24 -70 -54z"/>
<path d="M1395 2340 c-3 -10 -32 -37 -63 -60 -57 -40 -57 -54 0 -24 24 13 32
13 38 3 10 -16 50 46 50 79 0 27 -16 29 -25 2z"/>
<path d="M1568 2353 c7 -3 16 -2 19 1 4 3 -2 6 -13 5 -11 0 -14 -3 -6 -6z"/>
<path d="M1638 2334 c-3 -3 1 -26 8 -51 8 -25 14 -53 14 -61 0 -22 -28 4 -33
31 -4 18 -5 18 -6 -5 0 -15 -5 -30 -11 -33 -5 -3 -10 -27 -9 -53 l1 -47 12 39
c7 22 18 41 24 42 7 1 8 0 3 -2 -7 -4 -6 -12 1 -24 9 -14 9 -25 0 -44 -14 -32
2 -35 22 -3 23 37 29 86 15 136 -13 49 -32 84 -41 75z"/>
<path d="M1480 2288 c0 -18 -3 -44 -7 -57 -4 -17 -3 -22 5 -17 9 5 12 -9 12
-49 0 -35 4 -54 10 -50 11 7 14 146 4 183 -9 33 -24 27 -24 -10z"/>
<path d="M1930 2264 c45 -33 131 -74 153 -73 17 1 18 2 5 6 -10 2 -50 21 -90
41 -91 45 -99 49 -68 26z"/>
<path d="M413 2170 c-30 -39 -54 -60 -67 -60 -17 0 -18 -2 -6 -10 17 -10 15
-66 -2 -88 -6 -7 -8 -15 -5 -18 12 -12 25 7 31 47 6 37 9 40 29 34 12 -4 46
-11 76 -17 45 -9 59 -8 83 6 16 10 28 13 28 7 0 -6 -6 -11 -12 -12 -7 -1 -2
-4 12 -8 30 -8 102 24 153 68 48 42 56 26 10 -21 -20 -21 -32 -38 -26 -38 6 0
25 16 42 36 23 25 30 41 25 56 -4 14 -2 18 5 14 7 -4 11 1 11 13 l0 21 -21
-21 c-31 -31 -142 -79 -196 -84 -25 -2 -51 -9 -57 -15 -13 -13 -41 -13 -88 1
-38 10 -52 29 -21 29 22 0 85 49 77 61 -3 5 -23 -4 -44 -21 -21 -16 -41 -30
-44 -30 -17 0 -2 30 35 68 23 23 36 42 30 42 -6 0 -32 -27 -58 -60z"/>
<path d="M680 2220 c-8 -5 -12 -11 -10 -14 3 -2 14 2 24 10 22 15 10 19 -14 4z"/>
<path d="M1320 2172 c0 -5 -8 -17 -18 -28 -46 -49 -102 -216 -102 -306 0 -63
19 -34 26 41 5 41 15 75 31 97 12 19 23 39 23 43 0 15 43 91 51 91 4 0 7 16 6
35 -1 19 -5 35 -9 35 -5 0 -8 -4 -8 -8z"/>
<path d="M945 2114 c4 -54 17 -85 31 -72 3 4 1 30 -5 58 -6 28 -9 56 -5 61 3
5 -1 9 -9 9 -12 0 -14 -12 -12 -56z"/>
<path d="M1780 2141 c0 -6 4 -12 10 -16 5 -3 7 -12 3 -20 -3 -9 0 -22 7 -30
10 -12 9 -23 -4 -55 -22 -56 -21 -90 3 -83 15 4 20 -4 30 -42 7 -28 9 -67 5
-93 l-7 -46 27 29 c18 20 25 36 22 50 -3 11 -6 28 -6 37 0 10 -6 17 -12 15
-14 -2 -14 39 -2 121 7 45 -14 106 -44 130 -19 14 -32 16 -32 3z"/>
<path d="M1920 2143 c0 -1 7 -19 16 -40 42 -97 45 -108 32 -145 -6 -18 -21
-40 -32 -49 -29 -24 -13 -34 19 -13 34 22 45 51 45 118 0 40 -6 62 -24 89 -13
19 -23 37 -21 39 2 2 -5 4 -15 4 -11 0 -20 -1 -20 -3z"/>
<path d="M2076 2131 c60 -22 132 -31 136 -16 2 6 -22 13 -52 16 -30 4 -73 9
-95 13 -39 6 -38 5 11 -13z"/>
<path d="M1036 2075 c-14 -19 -39 -40 -54 -47 -21 -10 -30 -26 -44 -76 -17
-62 -17 -63 6 -89 l23 -27 -38 -49 c-22 -27 -42 -60 -45 -73 -3 -13 -12 -24
-20 -24 -8 0 -14 -4 -14 -8 0 -11 82 -32 125 -32 59 0 47 17 -17 24 -34 3 -63
8 -65 10 -9 9 47 100 87 142 23 25 40 47 37 50 -2 3 -12 -2 -20 -11 -30 -29
-37 -17 -37 59 0 70 2 75 28 91 41 27 98 95 78 95 -2 0 -15 -16 -30 -35z"/>
<path d="M1131 2094 c0 -11 3 -14 6 -6 3 7 2 16 -1 19 -3 4 -6 -2 -5 -13z"/>
<path d="M1519 2058 c-8 -30 -8 -51 -1 -70 6 -15 8 -37 5 -48 -3 -11 0 -20 6
-20 6 0 11 -6 11 -14 0 -16 28 -42 36 -33 3 3 -4 33 -16 68 -16 44 -21 76 -18
110 6 60 -7 64 -23 7z"/>
<path d="M2040 2092 c0 -6 3 -12 8 -14 12 -5 62 -76 62 -87 0 -8 7 -7 20 1 17
11 23 9 43 -12 13 -14 30 -43 39 -65 17 -39 17 -40 17 -10 1 44 -33 94 -69
101 -17 4 -50 27 -75 52 -25 24 -45 40 -45 34z"/>
<path d="M1409 2067 c5 -13 19 -39 30 -58 27 -45 28 -121 1 -174 -21 -42 -19
-60 5 -29 37 48 41 146 9 219 -24 54 -64 91 -45 42z"/>
<path d="M2253 2083 c9 -2 23 -2 30 0 6 3 -1 5 -18 5 -16 0 -22 -2 -12 -5z"/>
<path d="M1067 2053 c-4 -3 -7 -27 -7 -53 0 -26 -6 -60 -14 -76 -19 -40 -31
-98 -18 -90 15 9 41 104 45 169 2 31 3 57 2 57 -1 0 -5 -3 -8 -7z"/>
<path d="M1650 2045 c-6 -8 -10 -19 -8 -26 2 -6 9 0 16 15 13 29 10 33 -8 11z"/>
<path d="M2153 2040 c33 -26 113 -60 140 -59 14 0 5 6 -23 16 -25 9 -64 27
-87 40 -51 28 -64 30 -30 3z"/>
<path d="M427 1999 c-10 -6 -21 -9 -23 -6 -11 11 -65 -50 -59 -65 4 -9 -2 -29
-11 -45 -28 -43 -95 -106 -104 -96 -10 11 0 93 11 93 5 0 9 -9 9 -19 0 -32 19
-34 25 -4 4 15 10 38 15 50 6 14 5 23 -2 25 -7 3 -5 14 7 31 14 22 15 27 3 27
-21 0 -63 -50 -77 -89 -14 -42 -27 -171 -17 -171 4 0 23 12 42 26 60 46 39 4
-42 -84 -42 -46 -74 -86 -70 -89 3 -4 12 -1 18 5 26 26 29 10 4 -22 -34 -45
-33 -52 4 -26 16 12 51 51 77 88 25 37 55 76 65 87 24 27 84 108 96 131 5 11
13 39 16 64 7 42 6 43 -6 20 -8 -14 -20 -44 -27 -67 -8 -24 -18 -43 -23 -43
-4 0 -8 -7 -8 -15 0 -18 -17 -20 -22 -3 -2 6 13 47 34 89 37 77 51 89 118 112
8 3 4 6 -10 6 -14 0 -33 -4 -43 -10z m-170 -101 c-3 -8 -6 -5 -6 6 -1 11 2 17
5 13 3 -3 4 -12 1 -19z m63 -97 c0 -5 -7 -11 -14 -14 -10 -4 -13 -1 -9 9 6 15
23 19 23 5z"/>
<path d="M576 1963 c5 -29 3 -43 -5 -43 -6 0 -11 -17 -11 -39 0 -55 -13 -84
-61 -136 -50 -54 -46 -70 6 -24 46 41 75 97 75 149 0 44 23 57 34 18 11 -43 6
-75 -19 -112 -14 -20 -25 -41 -25 -46 0 -4 -4 -10 -10 -12 -5 -1 -6 -9 -1 -16
11 -18 77 44 86 81 4 15 11 27 16 27 5 0 9 10 9 21 0 18 2 19 15 9 21 -17 20
3 -1 36 -10 15 -23 23 -31 19 -12 -4 -14 4 -8 46 5 37 4 50 -4 45 -6 -4 -11
-13 -11 -20 0 -6 -5 -17 -12 -24 -9 -9 -16 -3 -30 26 l-18 37 6 -42z"/>
<path d="M1697 1993 c-4 -3 -7 -27 -7 -52 0 -25 -5 -53 -10 -61 -8 -13 -10
-13 -10 2 0 10 -9 34 -21 55 -25 45 -46 68 -34 38 29 -74 34 -95 35 -132 0
-23 -5 -45 -10 -48 -6 -4 -8 -11 -4 -16 8 -13 33 20 34 46 1 11 4 14 7 8 6
-17 56 -73 64 -73 3 0 -5 21 -18 48 -21 41 -23 56 -18 120 6 71 5 78 -8 65z"/>
<path d="M1407 1918 c8 -84 13 -86 13 -5 0 37 -4 67 -10 67 -6 0 -7 -24 -3
-62z"/>
<path d="M2150 1958 c0 -9 5 -20 10 -23 13 -8 13 5 0 25 -8 13 -10 13 -10 -2z"/>
<path d="M691 1922 c-13 -25 -14 -32 -2 -32 9 0 23 41 16 48 -2 2 -8 -5 -14
-16z"/>
<path d="M474 1910 c-17 -11 -36 -32 -43 -47 -8 -16 -18 -36 -23 -47 -9 -17
-4 -145 8 -224 5 -30 3 -33 -15 -27 -12 3 -35 7 -51 7 -26 1 -29 4 -24 22 3
12 10 25 15 31 12 12 11 72 -1 80 -6 3 -10 -5 -10 -19 0 -17 -4 -24 -14 -20
-21 8 -64 -84 -72 -155 -6 -52 -4 -65 11 -81 15 -17 19 -41 21 -135 1 -62 5
-119 9 -125 4 -7 9 -36 11 -66 2 -30 11 -69 19 -87 15 -32 15 -32 10 28 l-4
60 23 -45 c13 -25 38 -53 54 -63 17 -9 37 -30 45 -45 71 -139 116 -198 205
-275 46 -39 40 -25 -14 30 -79 82 -124 156 -162 268 -30 87 -36 125 -21 125 8
0 5 7 -6 20 -13 14 -21 47 -27 108 -17 172 -20 222 -13 239 6 15 11 11 26 -22
10 -22 16 -30 13 -17 -13 52 33 9 111 -103 26 -38 57 -78 69 -88 53 -44 179
-77 299 -77 72 0 88 4 133 30 64 36 126 106 144 160 16 49 42 70 86 70 44 0
84 -36 119 -108 64 -128 228 -182 406 -132 116 32 153 55 234 146 41 46 75 81
75 76 0 -4 -6 -17 -14 -27 -10 -14 -12 -36 -8 -80 11 -114 -1 -247 -26 -278
-5 -7 -22 -46 -37 -87 -27 -70 -87 -161 -134 -204 -11 -11 -21 -25 -21 -32 0
-22 -173 -187 -251 -240 -96 -66 -138 -87 -227 -113 -100 -30 -192 -29 -268 2
-87 35 -294 172 -386 256 -16 14 -28 20 -28 14 0 -5 29 -36 65 -68 l65 -57 0
-179 c0 -154 -3 -186 -20 -231 -23 -60 -20 -71 7 -31 34 48 53 151 53 283 0
81 4 120 11 120 6 0 40 -23 75 -51 131 -104 231 -137 369 -119 72 9 125 26
125 41 0 4 32 24 71 44 84 43 145 80 154 95 20 32 25 -6 25 -194 0 -186 9
-266 28 -266 4 0 6 110 5 244 l-2 244 67 72 c37 40 84 91 105 114 58 61 142
194 161 252 11 34 24 55 40 62 25 11 79 98 90 143 3 15 21 40 40 57 19 16 33
37 33 45 -3 23 14 25 27 3 17 -31 58 -76 68 -76 5 0 2 8 -7 17 -18 18 -57 99
-58 121 0 6 -4 12 -9 12 -4 0 -8 -6 -8 -12 0 -16 -39 32 -40 48 0 6 7 17 15
24 13 11 18 10 30 -6 14 -18 14 -18 15 3 0 12 -5 25 -11 29 -7 4 -9 21 -5 46
4 26 3 37 -4 33 -6 -3 -13 2 -16 12 -19 58 -30 75 -55 89 -16 8 -29 11 -29 7
0 -5 -12 -14 -27 -20 -34 -16 -49 -4 -57 47 -3 22 -10 40 -15 40 -16 0 -18
-24 -4 -38 7 -8 11 -18 8 -23 -16 -25 -181 6 -221 42 -11 11 -33 19 -48 19
-24 0 -27 -2 -16 -15 11 -13 3 -15 -61 -15 -111 0 -308 -18 -357 -32 -36 -11
-44 -18 -53 -48 -10 -34 -12 -35 -62 -36 -54 -1 -67 7 -67 43 0 28 -59 48
-192 64 -102 12 -243 5 -217 -12 12 -7 12 -9 -1 -9 -8 1 -22 6 -32 13 -14 12
-13 14 15 27 17 7 26 15 20 17 -7 3 -21 0 -32 -6 -11 -6 -36 -11 -55 -11 -19
0 -39 -6 -43 -14 -4 -7 -21 -16 -38 -19 -16 -3 -49 -10 -73 -16 -23 -6 -59
-10 -80 -8 -35 2 -37 5 -43 42 -3 22 -7 34 -8 28 -2 -18 -21 -16 -21 2 0 9 7
18 15 21 10 4 12 10 7 18 -26 33 -5 129 44 199 37 51 35 57 -12 27z m443 -316
c-3 -3 -12 -4 -19 -1 -8 3 -5 6 6 6 11 1 17 -2 13 -5z m831 -1 c-10 -2 -26 -2
-35 0 -10 3 -2 5 17 5 19 0 27 -2 18 -5z m195 -34 c73 -19 89 -85 45 -188 -45
-105 -129 -167 -242 -178 -78 -7 -174 11 -219 41 -40 27 -79 97 -88 156 -3 25
-10 63 -14 85 -6 36 -4 42 17 52 40 19 120 32 233 39 61 3 112 8 114 10 6 5
113 -6 154 -17z m-853 -12 l65 -12 -1 -75 c0 -75 -1 -78 -60 -190 -29 -56 -45
-67 -117 -79 -98 -17 -221 2 -290 43 -71 43 -106 112 -107 213 l0 71 43 16
c23 8 49 17 57 20 31 10 348 5 410 -7z m965 -8 c12 -19 -3 -22 -27 -5 l-22 16
21 0 c12 0 25 -5 28 -11z m-1710 -20 c4 -6 -2 -17 -13 -25 -17 -12 -20 -23
-17 -64 2 -27 0 -52 -6 -55 -10 -7 -13 138 -2 148 10 11 31 8 38 -4z m1888
-21 c18 -38 16 -44 -10 -29 -46 26 -47 29 -34 45 19 23 27 20 44 -16z m-966
-45 c4 -11 -26 -27 -35 -19 -2 3 -2 12 2 21 6 18 27 16 33 -2z m963 -35 c0
-16 -3 -19 -11 -11 -6 6 -8 16 -5 22 11 17 16 13 16 -11z m-30 -28 c0 -16 -4
-30 -9 -30 -12 0 -24 37 -16 50 12 20 25 10 25 -20z m-1859 -65 c-1 -17 -5
-34 -8 -39 -9 -13 -23 16 -23 47 0 22 4 28 18 25 13 -2 16 -11 13 -33z m1873
-21 c8 -21 -4 -88 -14 -77 -4 4 -10 27 -13 51 -4 30 -2 42 8 42 7 0 16 -7 19
-16z m56 -38 c0 -23 -17 -46 -34 -46 -6 0 -5 5 2 12 7 7 12 25 12 41 0 16 4
26 10 22 6 -3 10 -16 10 -29z m-1909 -67 c-2 -34 1 -49 8 -45 7 4 13 -9 17
-34 4 -22 11 -43 15 -46 5 -3 9 -12 9 -20 0 -56 -79 68 -86 136 -4 40 -2 50
13 58 25 14 27 9 24 -49z m1822 8 c-4 -6 -8 -27 -10 -47 -6 -68 -14 -98 -29
-111 -14 -12 -15 -4 -9 72 8 105 9 109 34 102 12 -3 18 -10 14 -16z"/>
<path d="M1582 1523 c-44 -10 -67 -22 -78 -38 -18 -27 -8 -59 15 -49 69 29
125 45 139 39 14 -5 13 -8 -8 -18 -38 -19 -48 -61 -23 -95 11 -15 28 -29 37
-30 46 -9 108 33 103 70 -4 26 -33 58 -52 58 -10 0 -13 5 -9 11 9 16 126 4
167 -16 16 -8 33 -13 36 -10 8 8 -23 35 -45 39 -10 2 -39 9 -62 16 -24 6 -53
10 -65 10 -37 -3 -83 1 -69 7 18 7 15 23 -5 22 -10 -1 -46 -8 -81 -16z m88
-98 c-14 -16 -40 -20 -40 -6 0 10 17 19 39 20 11 1 11 -2 1 -14z"/>
<path d="M1870 1516 c0 -2 9 -6 20 -9 11 -3 18 -1 14 4 -5 9 -34 13 -34 5z"/>
<path d="M1610 1286 c0 -16 26 -22 85 -17 45 3 56 21 13 21 -19 0 -50 3 -67 6
-24 5 -31 3 -31 -10z"/>
<path d="M995 1500 c-3 -5 -47 -10 -98 -10 -92 0 -227 -31 -227 -52 0 -5 8 -7
18 -4 83 25 192 34 192 16 0 -5 -9 -10 -21 -10 -31 0 -51 -26 -47 -62 2 -27 9
-35 41 -47 34 -13 42 -12 72 2 49 23 57 62 20 94 -34 30 -25 42 18 24 18 -8
49 -16 70 -18 37 -5 37 -5 33 28 -2 21 -10 35 -22 40 -27 11 -42 10 -49 -1z
m-125 -78 c0 -4 -9 -13 -20 -20 -16 -10 -20 -10 -20 1 0 8 3 17 7 20 9 9 33 9
33 -1z"/>
<path d="M920 1290 c-8 -5 -26 -10 -39 -10 -19 0 -22 -3 -13 -12 14 -14 107 1
107 17 0 14 -37 17 -55 5z"/>
<path d="M808 1273 c6 -2 18 -2 25 0 6 3 1 5 -13 5 -14 0 -19 -2 -12 -5z"/>
<path d="M1597 1910 c3 -11 9 -23 14 -26 5 -3 10 -22 11 -42 1 -36 1 -36 5 -5
2 17 -3 46 -12 62 -18 36 -25 40 -18 11z"/>
<path d="M2032 1880 c-6 -30 -13 -64 -15 -75 -2 -11 -10 -33 -19 -50 -8 -16
-19 -41 -23 -55 -4 -14 -16 -37 -27 -52 -11 -16 -15 -28 -10 -28 30 0 90 119
103 204 14 87 7 130 -9 56z"/>
<path d="M2110 1881 c0 -18 -6 -34 -14 -37 -10 -4 -12 -17 -9 -48 3 -26 1 -46
-6 -50 -14 -9 -14 -26 -1 -26 6 0 10 7 10 15 0 21 14 19 36 -6 10 -12 40 -32
65 -44 36 -19 54 -38 84 -89 37 -64 90 -116 117 -116 7 0 -4 10 -24 22 -43 25
-50 43 -13 36 13 -3 22 -1 19 3 -3 5 -13 9 -23 9 -27 0 -44 25 -35 52 9 28 6
80 -7 93 -5 5 -9 20 -10 35 0 25 0 25 -9 3 -18 -43 -41 -22 -54 48 -4 21 -14
43 -23 50 -15 12 -16 12 -9 -6 5 -11 13 -32 19 -47 16 -41 0 -46 -32 -11 -16
18 -31 29 -35 26 -7 -7 8 -36 30 -57 26 -26 1 -18 -29 9 -15 14 -27 34 -28 43
-6 100 -19 165 -19 93z m178 -193 c14 -14 16 -78 3 -78 -11 0 -23 29 -16 40 3
5 -4 15 -15 23 -20 14 -17 27 5 27 6 0 16 -5 23 -12z"/>
<path d="M1741 1863 c-1 -18 9 -49 20 -70 28 -51 99 -139 99 -124 0 11 -32 58
-70 103 -8 10 -23 42 -32 71 -15 47 -17 49 -17 20z"/>
<path d="M1976 1882 c-2 -4 -1 -14 5 -22 7 -12 9 -10 9 8 0 23 -5 28 -14 14z"/>
<path d="M2240 1855 c45 -65 100 -100 142 -92 20 3 19 5 -10 12 -19 4 -29 11
-22 15 8 5 6 11 -5 20 -8 7 -18 10 -22 6 -3 -3 -1 -6 5 -6 7 0 12 -4 12 -10 0
-21 -26 -9 -69 33 -25 23 -39 33 -31 22z"/>
<path d="M2276 1856 c3 -8 13 -17 22 -21 13 -5 13 -2 -3 15 -21 24 -26 25 -19
6z"/>
<path d="M1921 1807 c-1 -10 -8 -29 -17 -42 -9 -14 -12 -25 -6 -25 13 0 35 56
29 72 -4 8 -6 6 -6 -5z"/>
<path d="M1246 1771 c-4 -5 -2 -20 3 -33 9 -21 10 -21 10 10 1 32 -3 39 -13
23z"/>
<path d="M1048 1673 c7 -3 16 -2 19 1 4 3 -2 6 -13 5 -11 0 -14 -3 -6 -6z"/>
<path d="M1610 1667 c-43 -7 -51 -11 -35 -18 37 -14 112 -10 119 7 11 28 9 29
-84 11z"/>
<path d="M181 1501 c-9 -6 -15 -34 -17 -87 -3 -79 -3 -79 5 -17 4 34 15 73 25
87 17 26 12 33 -13 17z"/>
<path d="M206 1389 c-3 -17 -5 -43 -5 -58 1 -14 5 -2 10 28 10 58 6 83 -5 30z"/>
<path d="M216 1204 c-35 -42 -44 -63 -21 -46 16 11 67 83 63 87 -2 3 -21 -16
-42 -41z"/>
<path d="M2291 1174 c0 -11 3 -14 6 -6 3 7 2 16 -1 19 -3 4 -6 -2 -5 -13z"/>
<path d="M227 1151 c-28 -34 -35 -55 -15 -49 18 6 51 54 46 68 -2 8 -14 0 -31
-19z"/>
<path d="M2291 1118 c-1 -10 -10 -34 -21 -54 -12 -20 -19 -39 -16 -41 8 -8 48
85 43 99 -4 8 -6 7 -6 -4z"/>
<path d="M1467 1093 c-15 -19 -25 -23 -47 -18 -32 7 -74 -10 -64 -27 4 -6 22
-8 42 -4 20 3 42 1 49 -6 17 -14 63 15 63 41 0 34 -23 41 -43 14z m11 -34 c-2
-6 -8 -10 -13 -10 -5 0 -11 4 -13 10 -2 6 4 11 13 11 9 0 15 -5 13 -11z"/>
<path d="M1077 1103 c-15 -15 -6 -53 16 -68 24 -15 147 -18 147 -3 0 40 -45
51 -75 18 -10 -11 -24 -20 -32 -20 -22 0 -45 29 -45 56 0 26 -1 27 -11 17z"/>
<path d="M1278 1103 c-37 -6 -36 -20 1 -28 30 -6 71 8 71 25 0 10 -21 11 -72
3z"/>
<path d="M1120 1064 c0 -17 22 -14 28 4 2 7 -3 12 -12 12 -9 0 -16 -7 -16 -16z"/>
<path d="M1270 1023 c0 -18 6 -23 24 -23 22 0 36 16 36 41 0 5 -13 8 -30 7
-24 -2 -30 -7 -30 -25z"/>
<path d="M1555 859 c-4 -6 -4 -13 -1 -16 8 -8 36 5 36 17 0 13 -27 13 -35 -1z"/>
<path d="M970 841 c0 -14 21 -26 80 -44 104 -32 135 -37 220 -37 139 0 125 16
-22 24 -117 7 -140 11 -196 37 -67 31 -82 34 -82 20z"/>
<path d="M1510 818 c-16 -7 -20 -12 -12 -15 8 -3 21 2 30 11 19 18 17 19 -18
4z"/>
<path d="M1460 801 c0 -5 -12 -12 -27 -14 -22 -4 -20 -4 6 -3 19 0 36 7 39 14
2 6 -1 12 -7 12 -6 0 -11 -4 -11 -9z"/>
<path d="M1260 675 c39 -13 47 -12 60 0 13 13 7 15 -45 14 l-60 0 45 -14z"/>
<path d="M690 641 c0 -6 4 -13 10 -16 6 -3 7 1 4 9 -7 18 -14 21 -14 7z"/>
</g>
</svg>
